<svg width="12" height="13" viewBox="0 0 12 13" fill="none" xmlns="http://www.w3.org/2000/svg">
<g id="food-delivery 1" clip-path="url(#clip0_2747_617)">
<g id="Group">
<path id="Vector" d="M5.29688 0.623047C4.7153 0.623047 4.24219 1.09616 4.24219 1.67773V2.05273L4.94531 2.4043H5.29688H5.64844L6.35156 2.05273V1.67773C6.35156 1.09616 5.87845 0.623047 5.29688 0.623047Z" fill="#D56939"/>
<path id="Vector_2" d="M6.35156 2.05273V1.67773C6.35156 1.09616 5.87845 0.623047 5.29688 0.623047V2.4043H5.64844L6.35156 2.05273Z" fill="#D14D41"/>
<path id="Vector_3" d="M0 11.2168C0.162914 12.0191 0.907406 12.623 1.75781 12.623C2.60822 12.623 3.37615 12.0191 3.53906 11.2168L2.77528 10.8652H0.488063L0 11.2168Z" fill="#474F54"/>
<path id="Vector_4" d="M1.75781 11.9199C1.17623 11.9199 0.703125 11.4468 0.703125 10.8652C0.703125 10.2837 1.17623 9.81055 1.75781 9.81055C2.33939 9.81055 2.83594 10.2837 2.83594 10.8652C2.83594 11.4468 2.33939 11.9199 1.75781 11.9199Z" fill="#F2F9FF"/>
<path id="Vector_5" d="M3.53906 4.88867H1.40625L0.703125 5.5918V7.70117L1.40625 8.05273H3.53906L4.59375 7.70117V5.80273L4.24219 5.5918L3.53906 4.88867Z" fill="#FF9100"/>
<path id="Vector_6" d="M0.703125 4.18555V5.5918H4.24219L4.59375 5.4098L4.24219 5.24023V4.18555H0.703125Z" fill="#F3D230"/>
<path id="Vector_7" d="M5.64844 11.2168H0V10.8652C0 9.50609 1.12523 8.4043 2.48438 8.4043L3.07031 8.05273H6.35156V10.6309L5.64844 11.2168Z" fill="#D56939"/>
<path id="Vector_8" d="M0 7.70117H4.94531V8.4043H0V7.70117Z" fill="#32393F"/>
<path id="Vector_9" d="M7.40625 9.48005V10.8019L7.05469 11.2168H5.64844V8.4043H4.94531C4.55859 8.4043 4.24219 8.08789 4.24219 7.70117V5.94336H6.35156V6.99805C6.73828 6.99805 7.05469 7.31445 7.05469 7.70117V9.10742L7.40625 9.48005Z" fill="#575F64"/>
<path id="Vector_10" d="M7.40625 9.48005V10.8019L7.05469 11.2168H5.64844V8.4043H5.29688V5.94336H6.35156V6.99805C6.73828 6.99805 7.05469 7.31445 7.05469 7.70117V9.10742L7.40625 9.48005Z" fill="#474F54"/>
<g id="Group_2">
<path id="Vector_11" d="M6.35156 5.5918V5.24023C6.35156 4.65866 5.87845 4.18555 5.29688 4.18555C4.7153 4.18555 4.24219 4.65866 4.24219 5.24023V5.94336C4.24219 6.52585 4.71438 6.99805 5.29688 6.99805H8.13281C8.7153 6.99805 9.1875 6.52585 9.1875 5.94336V5.5918H6.35156Z" fill="#D56939"/>
<path id="Vector_12" d="M9.1875 5.94336V5.5918H6.35156V5.24023C6.35156 4.65866 5.87845 4.18555 5.29688 4.18555V6.99805H8.13281C8.7153 6.99805 9.1875 6.52585 9.1875 5.94336Z" fill="#D14D41"/>
</g>
<path id="Vector_13" d="M5.64844 2.4043H5.29688H4.94531L4.24219 2.75586V3.10742C4.24219 3.689 4.7153 4.18555 5.29688 4.18555C5.87845 4.18555 6.35156 3.689 6.35156 3.10742V2.75586L5.64844 2.4043Z" fill="#FFE1BA"/>
<path id="Vector_14" d="M6.35156 3.10742V2.75586L5.64844 2.4043H5.29688V4.18555C5.87845 4.18555 6.35156 3.689 6.35156 3.10742Z" fill="#FFBFAB"/>
<path id="Vector_15" d="M5.29688 2.05273H4.24219V2.75586H5.29688H7.05469V2.05273H5.29688Z" fill="#474F54"/>
<path id="Vector_16" d="M5.29688 2.05273H7.05469V2.75586H5.29688V2.05273Z" fill="#32393F"/>
<path id="Vector_17" d="M10.1564 7.77978C10.1176 7.50615 10.0406 6.96713 9.8872 5.89355L8.48438 5.24023V8.05273C8.48438 8.60734 8.0066 9.10742 7.40625 9.10742H7.05469V11.2168H7.75781H11.2969L12 10.8652V10.1621C12 9.03739 11.2241 8.05686 10.1564 7.77978Z" fill="#D14D41"/>
<g id="Group_3">
<path id="Vector_18" d="M10.5938 6.29492H9.53906C8.95748 6.29492 8.48438 5.82181 8.48438 5.24023C8.48438 4.65866 8.95748 4.18555 9.53906 4.18555H10.5938V6.29492Z" fill="#D56939"/>
</g>
<path id="Vector_19" d="M10.3478 9.1181L10.2456 9.50876L9.65145 9.21689C8.9734 9.4609 8.48438 10.1042 8.48438 10.8652C8.48438 11.8344 9.27298 12.623 10.2422 12.623C11.2114 12.623 12 11.8344 12 10.8652C12 9.93221 11.267 9.17398 10.3478 9.1181Z" fill="#32393F"/>
<g id="Group_4">
<path id="Vector_20" d="M10.2422 9.81055C9.66061 9.81055 9.1875 10.2837 9.1875 10.8652C9.1875 11.4468 9.66061 11.9199 10.2422 11.9199C10.8238 11.9199 11.2969 11.4468 11.2969 10.8652C11.2969 10.2837 10.8238 9.81055 10.2422 9.81055Z" fill="#DFE7F4"/>
</g>
<path id="Vector_21" d="M10.5903 10.8155L10.3478 9.11811C10.3121 9.11595 10.2783 9.10742 10.2421 9.10742C10.034 9.10742 9.83689 9.15017 9.65143 9.2169L9.89403 10.915L10.5903 10.8155Z" fill="#C7CFE1"/>
</g>
</g>
<defs>
<clipPath id="clip0_2747_617">
<rect width="12" height="12" fill="white" transform="translate(0 0.623047)"/>
</clipPath>
</defs>
</svg>
